<?xml version="1.0" encoding="UTF-8" standalone="no"?>
<!DOCTYPE svg PUBLIC "-//W3C//DTD SVG 1.1//EN" "http://www.w3.org/Graphics/SVG/1.1/DTD/svg11.dtd">
<svg version="1.1" xmlns="http://www.w3.org/2000/svg" xmlns:xlink="http://www.w3.org/1999/xlink" preserveAspectRatio="xMidYMid meet" viewBox="221.761486252121 195.4933838625306 192.5945945945946 192.59459459459464" width="192.59" height="192.59"><defs><path d="M414.36 291.79C414.36 344.94 371.21 388.09 318.06 388.09C264.91 388.09 221.76 344.94 221.76 291.79C221.76 238.64 264.91 195.49 318.06 195.49C371.21 195.49 414.36 238.64 414.36 291.79Z" id="hWgWCQGHX"></path><path d="M403.73 291.79C403.73 339.07 365.34 377.46 318.06 377.46C270.78 377.46 232.39 339.07 232.39 291.79C232.39 244.51 270.78 206.12 318.06 206.12C365.34 206.12 403.73 244.51 403.73 291.79Z" id="bPxROsU62"></path><path d="M397.06 291.79C397.06 335.39 361.66 370.79 318.06 370.79C274.46 370.79 239.06 335.39 239.06 291.79C239.06 248.19 274.46 212.79 318.06 212.79C361.66 212.79 397.06 248.19 397.06 291.79Z" id="fxC5evMMM"></path><path d="M330.43 279.42C330.43 286.25 324.89 291.79 318.06 291.79C311.23 291.79 305.68 286.25 305.68 279.42C305.68 272.59 311.23 267.04 318.06 267.04C324.89 267.04 330.43 272.59 330.43 279.42Z" id="agjPd67xG"></path><path d="M318.06 366.92C318.06 366.92 318.06 366.92 318.06 366.92C316.02 366.92 313.99 366.77 311.98 366.46C309.91 366.15 311.17 366.34 310.21 366.2C304.52 365.35 298.9 364.08 293.4 362.42C292.18 362.05 295.05 362.92 293.4 362.42C289.37 361.2 285.5 359.52 281.86 357.4C280.49 356.6 282.95 358.04 281.86 357.4C277.29 354.75 272.95 351.74 268.87 348.39C268.06 347.73 268.61 348.18 267.02 346.87C266.28 346.27 266.71 345.08 267.66 345.08C274.38 345.08 291.18 345.08 318.06 345.08L318.06 366.92Z" id="jJt8Qdiry"></path><path d="M318.06 366.92C318.06 366.92 318.06 366.92 318.06 366.92C320.1 366.92 322.13 366.77 324.14 366.46C326.2 366.15 324.95 366.34 325.91 366.2C331.6 365.35 337.21 364.08 342.72 362.42C343.93 362.05 341.07 362.92 342.72 362.42C346.75 361.2 350.62 359.52 354.26 357.4C355.63 356.6 353.17 358.04 354.26 357.4C358.82 354.75 363.17 351.74 367.25 348.39C368.06 347.73 367.5 348.18 369.1 346.87C369.83 346.27 369.41 345.08 368.46 345.08C361.74 345.08 344.94 345.08 318.06 345.08L318.06 366.92Z" id="d2BdQGgk6Y"></path><path d="M318.06 339.58C289.49 339.58 271.64 339.58 264.5 339.58C262.37 339.58 260.34 338.7 258.89 337.15C258.34 336.57 259.34 337.64 258.89 337.15C257.08 335.23 255.53 333.08 254.27 330.76C253.81 329.92 253.99 330.25 253.45 329.25C252.8 328.05 253.67 326.6 255.03 326.61C263.43 326.7 284.44 326.91 318.06 327.25L318.06 339.58Z" id="b5OJ31DGRR"></path><path d="M318.06 339.58C346.62 339.58 364.48 339.58 371.62 339.58C373.74 339.58 375.78 338.7 377.23 337.15C377.77 336.57 376.77 337.64 377.23 337.15C379.04 335.23 380.59 333.08 381.85 330.76C382.3 329.92 382.13 330.25 382.67 329.25C383.32 328.05 382.45 326.6 381.09 326.61C372.68 326.7 351.67 326.91 318.06 327.25L318.06 339.58Z" id="c1m21q5Lm4"></path><path d="M318.06 322.08C284.24 322.08 263.11 322.08 254.66 322.08C252.68 322.08 250.82 321.12 249.68 319.51C249.24 318.89 250.37 320.48 250.09 320.08C248.38 317.66 247.09 314.96 246.29 312.1C246.14 311.53 246.35 312.28 246.06 311.24C245.78 310.24 246.53 309.25 247.57 309.25C256.97 309.25 280.46 309.25 318.06 309.25L318.06 322.08Z" id="b1TVfCGXEx"></path><path d="M318.06 322.08C351.87 322.08 373.01 322.08 381.46 322.08C383.44 322.08 385.3 321.12 386.44 319.51C386.87 318.89 385.75 320.48 386.03 320.08C387.74 317.66 389.03 314.96 389.82 312.1C389.98 311.53 389.77 312.28 390.06 311.24C390.34 310.24 389.59 309.25 388.55 309.25C379.15 309.25 355.65 309.25 318.06 309.25L318.06 322.08Z" id="aKU2nnzK5"></path></defs><g><g><g><use xlink:href="#hWgWCQGHX" opacity="1" fill="#ffffff" fill-opacity="1"></use></g><g><use xlink:href="#bPxROsU62" opacity="1" fill="#bdbdbd" fill-opacity="1"></use></g><g><use xlink:href="#fxC5evMMM" opacity="1" fill="#ababab" fill-opacity="1"></use></g><g><use xlink:href="#agjPd67xG" opacity="1" fill="#75ff65" fill-opacity="1"></use></g><g><use xlink:href="#jJt8Qdiry" opacity="1" fill="#878787" fill-opacity="1"></use><g><use xlink:href="#jJt8Qdiry" opacity="1" fill-opacity="0" stroke="#878787" stroke-width="1" stroke-opacity="1"></use></g></g><g><use xlink:href="#d2BdQGgk6Y" opacity="1" fill="#878787" fill-opacity="1"></use><g><use xlink:href="#d2BdQGgk6Y" opacity="1" fill-opacity="0" stroke="#878787" stroke-width="1" stroke-opacity="1"></use></g></g><g><use xlink:href="#b5OJ31DGRR" opacity="1" fill="#878787" fill-opacity="1"></use><g><use xlink:href="#b5OJ31DGRR" opacity="1" fill-opacity="0" stroke="#878787" stroke-width="1" stroke-opacity="1"></use></g></g><g><use xlink:href="#c1m21q5Lm4" opacity="1" fill="#878787" fill-opacity="1"></use><g><use xlink:href="#c1m21q5Lm4" opacity="1" fill-opacity="0" stroke="#878787" stroke-width="1" stroke-opacity="1"></use></g></g><g><use xlink:href="#b1TVfCGXEx" opacity="1" fill="#878787" fill-opacity="1"></use><g><use xlink:href="#b1TVfCGXEx" opacity="1" fill-opacity="0" stroke="#878787" stroke-width="1" stroke-opacity="1"></use></g></g><g><use xlink:href="#aKU2nnzK5" opacity="1" fill="#878787" fill-opacity="1"></use><g><use xlink:href="#aKU2nnzK5" opacity="1" fill-opacity="0" stroke="#878787" stroke-width="1" stroke-opacity="1"></use></g></g></g></g></svg>